<mxfile host="drawio-plugin" modified="2023-07-28T12:08:54.641Z" agent="5.0 (Windows NT 6.2; Win64; x64) AppleWebKit/537.36 (KHTML, like Gecko) Chrome/97.0.4692.45 Safari/537.36" etag="QvJTjIiQzXYTWhZZ2MrM" version="20.5.3" type="embed"><diagram name="Страница 1" id="Fr2Sc805jocqnwrjop_2"><mxGraphModel dx="962" dy="478" grid="1" gridSize="10" guides="1" tooltips="1" connect="1" arrows="1" fold="1" page="1" pageScale="1" pageWidth="827" pageHeight="1169" math="0" shadow="0"><root><mxCell id="0"/><mxCell id="1" parent="0"/><mxCell id="0n4ilMmWln6LYoHreiA7-4" value="Пользовательский UI" style="rounded=0;whiteSpace=wrap;html=1;" parent="1" vertex="1"><mxGeometry x="275" y="30" width="270" height="60" as="geometry"/></mxCell><mxCell id="0n4ilMmWln6LYoHreiA7-5" value="API Gateway" style="rounded=0;whiteSpace=wrap;html=1;" parent="1" vertex="1"><mxGeometry x="50" y="150" width="720" height="60" as="geometry"/></mxCell><mxCell id="0n4ilMmWln6LYoHreiA7-9" value="" style="endArrow=classic;startArrow=classic;html=1;rounded=0;exitX=0.5;exitY=0;exitDx=0;exitDy=0;entryX=0.5;entryY=1;entryDx=0;entryDy=0;" parent="1" source="0n4ilMmWln6LYoHreiA7-5" target="0n4ilMmWln6LYoHreiA7-4" edge="1"><mxGeometry width="50" height="50" relative="1" as="geometry"><mxPoint x="390" y="420" as="sourcePoint"/><mxPoint x="440" y="370" as="targetPoint"/></mxGeometry></mxCell><mxCell id="0n4ilMmWln6LYoHreiA7-10" value="REST API" style="edgeLabel;html=1;align=center;verticalAlign=middle;resizable=0;points=[];" parent="0n4ilMmWln6LYoHreiA7-9" vertex="1" connectable="0"><mxGeometry y="2" relative="1" as="geometry"><mxPoint as="offset"/></mxGeometry></mxCell><mxCell id="0n4ilMmWln6LYoHreiA7-15" value="&lt;div&gt;Сервис&lt;/div&gt;&lt;div&gt;авторизации&lt;/div&gt;" style="rounded=0;whiteSpace=wrap;html=1;" parent="1" vertex="1"><mxGeometry x="50" y="260" width="120" height="60" as="geometry"/></mxCell><mxCell id="0n4ilMmWln6LYoHreiA7-16" value="" style="strokeWidth=2;html=1;shape=mxgraph.flowchart.database;whiteSpace=wrap;" parent="1" vertex="1"><mxGeometry x="80" y="350" width="60" height="60" as="geometry"/></mxCell><mxCell id="0n4ilMmWln6LYoHreiA7-17" value="" style="endArrow=classic;startArrow=classic;html=1;rounded=0;exitX=0.5;exitY=1;exitDx=0;exitDy=0;entryX=0.5;entryY=0;entryDx=0;entryDy=0;entryPerimeter=0;" parent="1" source="0n4ilMmWln6LYoHreiA7-15" target="0n4ilMmWln6LYoHreiA7-16" edge="1"><mxGeometry width="50" height="50" relative="1" as="geometry"><mxPoint x="390" y="420" as="sourcePoint"/><mxPoint x="440" y="370" as="targetPoint"/></mxGeometry></mxCell><mxCell id="0n4ilMmWln6LYoHreiA7-18" value="" style="endArrow=classic;startArrow=classic;html=1;rounded=0;entryX=0.083;entryY=1.017;entryDx=0;entryDy=0;entryPerimeter=0;exitX=0.5;exitY=0;exitDx=0;exitDy=0;" parent="1" source="0n4ilMmWln6LYoHreiA7-15" target="0n4ilMmWln6LYoHreiA7-5" edge="1"><mxGeometry width="50" height="50" relative="1" as="geometry"><mxPoint x="390" y="420" as="sourcePoint"/><mxPoint x="440" y="370" as="targetPoint"/></mxGeometry></mxCell><mxCell id="0n4ilMmWln6LYoHreiA7-19" value="REST API" style="edgeLabel;html=1;align=center;verticalAlign=middle;resizable=0;points=[];" parent="0n4ilMmWln6LYoHreiA7-18" vertex="1" connectable="0"><mxGeometry x="0.2248" y="-1" relative="1" as="geometry"><mxPoint as="offset"/></mxGeometry></mxCell><mxCell id="0n4ilMmWln6LYoHreiA7-20" value="Информационные сервисы" style="swimlane;whiteSpace=wrap;html=1;" parent="1" vertex="1"><mxGeometry x="214" y="260" width="240" height="210" as="geometry"/></mxCell><mxCell id="0n4ilMmWln6LYoHreiA7-21" value="" style="rounded=0;whiteSpace=wrap;html=1;" parent="0n4ilMmWln6LYoHreiA7-20" vertex="1"><mxGeometry x="10" y="40" width="80" height="60" as="geometry"/></mxCell><mxCell id="0n4ilMmWln6LYoHreiA7-23" value="" style="strokeWidth=2;html=1;shape=mxgraph.flowchart.database;whiteSpace=wrap;" parent="0n4ilMmWln6LYoHreiA7-20" vertex="1"><mxGeometry x="20" y="140" width="60" height="60" as="geometry"/></mxCell><mxCell id="0n4ilMmWln6LYoHreiA7-24" value="" style="rounded=0;whiteSpace=wrap;html=1;" parent="0n4ilMmWln6LYoHreiA7-20" vertex="1"><mxGeometry x="150" y="40" width="80" height="60" as="geometry"/></mxCell><mxCell id="0n4ilMmWln6LYoHreiA7-25" value="" style="strokeWidth=2;html=1;shape=mxgraph.flowchart.database;whiteSpace=wrap;" parent="0n4ilMmWln6LYoHreiA7-20" vertex="1"><mxGeometry x="160" y="140" width="60" height="60" as="geometry"/></mxCell><mxCell id="0n4ilMmWln6LYoHreiA7-26" value="" style="endArrow=classic;startArrow=classic;html=1;rounded=0;entryX=0.5;entryY=1;entryDx=0;entryDy=0;exitX=0.5;exitY=0;exitDx=0;exitDy=0;exitPerimeter=0;" parent="0n4ilMmWln6LYoHreiA7-20" source="0n4ilMmWln6LYoHreiA7-25" target="0n4ilMmWln6LYoHreiA7-24" edge="1"><mxGeometry width="50" height="50" relative="1" as="geometry"><mxPoint x="176" y="160" as="sourcePoint"/><mxPoint x="226" y="110" as="targetPoint"/></mxGeometry></mxCell><mxCell id="0n4ilMmWln6LYoHreiA7-27" value="" style="endArrow=classic;startArrow=classic;html=1;rounded=0;exitX=0.5;exitY=0;exitDx=0;exitDy=0;exitPerimeter=0;entryX=0.5;entryY=1;entryDx=0;entryDy=0;" parent="0n4ilMmWln6LYoHreiA7-20" source="0n4ilMmWln6LYoHreiA7-23" target="0n4ilMmWln6LYoHreiA7-21" edge="1"><mxGeometry width="50" height="50" relative="1" as="geometry"><mxPoint x="176" y="160" as="sourcePoint"/><mxPoint x="226" y="110" as="targetPoint"/></mxGeometry></mxCell><mxCell id="0n4ilMmWln6LYoHreiA7-53" value="" style="endArrow=classic;startArrow=classic;html=1;rounded=0;entryX=1;entryY=0.5;entryDx=0;entryDy=0;dashed=1;" parent="0n4ilMmWln6LYoHreiA7-20" edge="1"><mxGeometry width="50" height="50" relative="1" as="geometry"><mxPoint x="150" y="70" as="sourcePoint"/><mxPoint x="90" y="70" as="targetPoint"/></mxGeometry></mxCell><mxCell id="0n4ilMmWln6LYoHreiA7-54" value="" style="endArrow=classic;html=1;rounded=0;dashed=1;" parent="0n4ilMmWln6LYoHreiA7-20" edge="1"><mxGeometry width="50" height="50" relative="1" as="geometry"><mxPoint x="120" y="70" as="sourcePoint"/><mxPoint x="120" y="260" as="targetPoint"/></mxGeometry></mxCell><mxCell id="0n4ilMmWln6LYoHreiA7-28" value="" style="endArrow=classic;startArrow=classic;html=1;rounded=0;entryX=0.297;entryY=0.983;entryDx=0;entryDy=0;entryPerimeter=0;exitX=0.5;exitY=0;exitDx=0;exitDy=0;" parent="1" source="0n4ilMmWln6LYoHreiA7-21" target="0n4ilMmWln6LYoHreiA7-5" edge="1"><mxGeometry width="50" height="50" relative="1" as="geometry"><mxPoint x="264" y="290" as="sourcePoint"/><mxPoint x="285.76" y="210" as="targetPoint"/></mxGeometry></mxCell><mxCell id="0n4ilMmWln6LYoHreiA7-30" value="REST API" style="edgeLabel;html=1;align=center;verticalAlign=middle;resizable=0;points=[];" parent="0n4ilMmWln6LYoHreiA7-28" vertex="1" connectable="0"><mxGeometry x="0.2645" y="2" relative="1" as="geometry"><mxPoint as="offset"/></mxGeometry></mxCell><mxCell id="0n4ilMmWln6LYoHreiA7-31" value="" style="endArrow=classic;startArrow=classic;html=1;rounded=0;exitX=0.5;exitY=0;exitDx=0;exitDy=0;" parent="1" source="0n4ilMmWln6LYoHreiA7-24" edge="1"><mxGeometry width="50" height="50" relative="1" as="geometry"><mxPoint x="300" y="310" as="sourcePoint"/><mxPoint x="404" y="210" as="targetPoint"/></mxGeometry></mxCell><mxCell id="0n4ilMmWln6LYoHreiA7-32" value="REST API" style="edgeLabel;html=1;align=center;verticalAlign=middle;resizable=0;points=[];" parent="0n4ilMmWln6LYoHreiA7-31" vertex="1" connectable="0"><mxGeometry x="0.2645" y="2" relative="1" as="geometry"><mxPoint as="offset"/></mxGeometry></mxCell><mxCell id="0n4ilMmWln6LYoHreiA7-36" value="Игровые сервисы" style="swimlane;whiteSpace=wrap;html=1;" parent="1" vertex="1"><mxGeometry x="490" y="260" width="240" height="210" as="geometry"/></mxCell><mxCell id="0n4ilMmWln6LYoHreiA7-37" value="" style="rounded=0;whiteSpace=wrap;html=1;" parent="0n4ilMmWln6LYoHreiA7-36" vertex="1"><mxGeometry x="10" y="40" width="80" height="60" as="geometry"/></mxCell><mxCell id="0n4ilMmWln6LYoHreiA7-38" value="" style="strokeWidth=2;html=1;shape=mxgraph.flowchart.database;whiteSpace=wrap;" parent="0n4ilMmWln6LYoHreiA7-36" vertex="1"><mxGeometry x="20" y="140" width="60" height="60" as="geometry"/></mxCell><mxCell id="0n4ilMmWln6LYoHreiA7-39" value="" style="rounded=0;whiteSpace=wrap;html=1;" parent="0n4ilMmWln6LYoHreiA7-36" vertex="1"><mxGeometry x="150" y="40" width="80" height="60" as="geometry"/></mxCell><mxCell id="0n4ilMmWln6LYoHreiA7-40" value="" style="strokeWidth=2;html=1;shape=mxgraph.flowchart.database;whiteSpace=wrap;" parent="0n4ilMmWln6LYoHreiA7-36" vertex="1"><mxGeometry x="160" y="140" width="60" height="60" as="geometry"/></mxCell><mxCell id="0n4ilMmWln6LYoHreiA7-41" value="" style="endArrow=classic;startArrow=classic;html=1;rounded=0;entryX=0.5;entryY=1;entryDx=0;entryDy=0;exitX=0.5;exitY=0;exitDx=0;exitDy=0;exitPerimeter=0;" parent="0n4ilMmWln6LYoHreiA7-36" source="0n4ilMmWln6LYoHreiA7-40" target="0n4ilMmWln6LYoHreiA7-39" edge="1"><mxGeometry width="50" height="50" relative="1" as="geometry"><mxPoint x="176" y="160" as="sourcePoint"/><mxPoint x="226" y="110" as="targetPoint"/></mxGeometry></mxCell><mxCell id="0n4ilMmWln6LYoHreiA7-42" value="" style="endArrow=classic;startArrow=classic;html=1;rounded=0;exitX=0.5;exitY=0;exitDx=0;exitDy=0;exitPerimeter=0;entryX=0.5;entryY=1;entryDx=0;entryDy=0;" parent="0n4ilMmWln6LYoHreiA7-36" source="0n4ilMmWln6LYoHreiA7-38" target="0n4ilMmWln6LYoHreiA7-37" edge="1"><mxGeometry width="50" height="50" relative="1" as="geometry"><mxPoint x="176" y="160" as="sourcePoint"/><mxPoint x="226" y="110" as="targetPoint"/></mxGeometry></mxCell><mxCell id="0n4ilMmWln6LYoHreiA7-49" value="" style="endArrow=classic;startArrow=classic;html=1;rounded=0;exitX=0;exitY=0.5;exitDx=0;exitDy=0;entryX=1;entryY=0.5;entryDx=0;entryDy=0;dashed=1;" parent="0n4ilMmWln6LYoHreiA7-36" source="0n4ilMmWln6LYoHreiA7-39" target="0n4ilMmWln6LYoHreiA7-37" edge="1"><mxGeometry width="50" height="50" relative="1" as="geometry"><mxPoint x="-100" y="130" as="sourcePoint"/><mxPoint x="-50" y="80" as="targetPoint"/></mxGeometry></mxCell><mxCell id="0n4ilMmWln6LYoHreiA7-43" value="" style="endArrow=classic;startArrow=classic;html=1;rounded=0;exitX=0.5;exitY=0;exitDx=0;exitDy=0;" parent="1" source="0n4ilMmWln6LYoHreiA7-37" edge="1"><mxGeometry width="50" height="50" relative="1" as="geometry"><mxPoint x="274" y="300" as="sourcePoint"/><mxPoint x="540" y="210" as="targetPoint"/></mxGeometry></mxCell><mxCell id="0n4ilMmWln6LYoHreiA7-44" value="REST API" style="edgeLabel;html=1;align=center;verticalAlign=middle;resizable=0;points=[];" parent="0n4ilMmWln6LYoHreiA7-43" vertex="1" connectable="0"><mxGeometry x="0.2645" y="2" relative="1" as="geometry"><mxPoint as="offset"/></mxGeometry></mxCell><mxCell id="0n4ilMmWln6LYoHreiA7-45" value="" style="endArrow=classic;startArrow=classic;html=1;rounded=0;exitX=0.5;exitY=0;exitDx=0;exitDy=0;entryX=0.874;entryY=1.1;entryDx=0;entryDy=0;entryPerimeter=0;" parent="1" source="0n4ilMmWln6LYoHreiA7-39" target="0n4ilMmWln6LYoHreiA7-5" edge="1"><mxGeometry width="50" height="50" relative="1" as="geometry"><mxPoint x="310" y="320" as="sourcePoint"/><mxPoint x="375" y="221" as="targetPoint"/></mxGeometry></mxCell><mxCell id="0n4ilMmWln6LYoHreiA7-46" value="REST API" style="edgeLabel;html=1;align=center;verticalAlign=middle;resizable=0;points=[];" parent="0n4ilMmWln6LYoHreiA7-45" vertex="1" connectable="0"><mxGeometry x="0.2645" y="2" relative="1" as="geometry"><mxPoint as="offset"/></mxGeometry></mxCell><mxCell id="0n4ilMmWln6LYoHreiA7-47" value="Очередь сообщений" style="rounded=0;whiteSpace=wrap;html=1;" parent="1" vertex="1"><mxGeometry x="80" y="520" width="610" height="40" as="geometry"/></mxCell><mxCell id="0n4ilMmWln6LYoHreiA7-50" value="" style="endArrow=classic;html=1;rounded=0;dashed=1;" parent="1" edge="1"><mxGeometry width="50" height="50" relative="1" as="geometry"><mxPoint x="610" y="330" as="sourcePoint"/><mxPoint x="610" y="520" as="targetPoint"/></mxGeometry></mxCell><mxCell id="0n4ilMmWln6LYoHreiA7-51" value="" style="endArrow=classic;startArrow=classic;html=1;rounded=0;entryX=1;entryY=0.5;entryDx=0;entryDy=0;dashed=1;exitX=0.179;exitY=-0.075;exitDx=0;exitDy=0;exitPerimeter=0;" parent="1" source="0n4ilMmWln6LYoHreiA7-47" target="0n4ilMmWln6LYoHreiA7-15" edge="1"><mxGeometry width="50" height="50" relative="1" as="geometry"><mxPoint x="190" y="510" as="sourcePoint"/><mxPoint x="440" y="340" as="targetPoint"/><Array as="points"><mxPoint x="190" y="290"/></Array></mxGeometry></mxCell></root></mxGraphModel></diagram></mxfile>